<svg xmlns="http://www.w3.org/2000/svg" viewBox="0 0 1200 630" role="img" aria-labelledby="title desc">
  <title id="title">Soluciones Fabrick</title><desc id="desc">Imagen oficial de Soluciones Fabrick para enlaces compartidos.</desc>
  <defs>
    <linearGradient id="gold" x1="0" y1="0" x2="1" y2="1"><stop stop-color="#FFF3BC"/><stop offset=".26" stop-color="#E5BA4B"/><stop offset=".62" stop-color="#A66F18"/><stop offset="1" stop-color="#F1CA62"/></linearGradient>
    <linearGradient id="steel" x1="0" y1="0" x2="0" y2="1"><stop stop-color="#FFFFFF"/><stop offset=".24" stop-color="#B7BCB9"/><stop offset=".58" stop-color="#747A78"/><stop offset="1" stop-color="#DCE0DC"/></linearGradient>
  </defs>
  <rect width="1200" height="630" fill="#08090A"/>
  <path d="M783 630 1200 254V630Z" fill="#121417"/><path d="M840 630 1200 310V630Z" fill="#171A1D"/>
  <path d="M680 579 1185 291" fill="none" stroke="#FFB000" stroke-opacity=".55" stroke-width="3"/><path d="M716 617 1200 341" fill="none" stroke="#F5871F" stroke-opacity=".48" stroke-width="2"/>
  <g fill="none" stroke-linecap="round" stroke-linejoin="round"><path d="M113 178 600 53l487 125" stroke="url(#steel)" stroke-width="14"/><path d="M136 178 600 69l464 109" stroke="#F7F8F5" stroke-opacity=".84" stroke-width="4"/><path d="M814 118V73h43v66" stroke="url(#steel)" stroke-width="13"/><path d="M827 115V84h11v35" stroke="#F7F8F5" stroke-opacity=".82" stroke-width="4"/><path d="M113 178h974" stroke="#5E6462" stroke-opacity=".4" stroke-width="4"/></g>
  <g font-family="Sora, Manrope, Arial, Helvetica, sans-serif"><text x="88" y="268" fill="url(#gold)" font-size="68" font-weight="900" letter-spacing="1.2" textLength="1025" lengthAdjust="spacingAndGlyphs">SOLUCIONES FABRICK</text><text x="91" y="322" fill="#BFC3BF" font-size="19" font-weight="800" letter-spacing="5">CONSTRUCCIÓN · REMODELACIÓN · REPARACIÓN</text><text x="90" y="426" fill="#FFF9EE" font-size="52" font-weight="900">Construye y transforma</text><text x="90" y="486" fill="#FFF9EE" font-size="52" font-weight="900">con respaldo técnico.</text><text x="92" y="544" fill="#D8D4CC" font-size="25" font-weight="600">Evaluación clara, materiales duraderos y ejecución por etapas.</text><path d="M90 574h1020" stroke="#806522" stroke-width="2"/><text x="91" y="611" fill="#FFB000" font-size="20" font-weight="900" letter-spacing="3">SOLUCIONESFABRICK.COM</text><text x="965" y="611" fill="#FFF9EE" font-size="18" font-weight="700">Maule · Chile</text></g>
</svg>
